<?xml version="1.0" encoding="utf-8"?><!DOCTYPE svg PUBLIC "-//W3C//DTD SVG 1.1//EN" "http://www.w3.org/Graphics/SVG/1.1/DTD/svg11.dtd"><svg version="1.1" id="Contours" xmlns="http://www.w3.org/2000/svg" xmlns:xlink="http://www.w3.org/1999/xlink" x="0px" y="0px" width="223.897247px" height="223.897247px" viewBox="0.000004 0.000000 223.897247 373.500305" enable-background="new 0 0 223.897247 223.897247" xml:space="preserve" stroke="black" fill="none" stroke-linecap='round' stroke-linejoin='round'><path class="selected"  fill="#ffffff" opacity="1.000000" stroke="none" 
 	d="
M74.185858 222.662683 C75.798736 215.928686 77.996944 209.217265 77.937442 202.293065 C77.877940 195.368865 75.020553 187.954324 68.919747 184.678922 C65.183350 182.672926 65.876368 176.936643 68.306625 173.461225 C70.736881 169.985806 74.395311 167.168423 75.451432 163.061199 C76.507553 158.953975 72.198695 153.597966 68.658240 155.932459 C64.277272 158.821167 58.477465 152.771233 59.552409 147.634890 C60.627353 142.498548 65.438972 139.133374 69.933644 136.424972 C72.150517 135.089128 74.578736 133.534475 75.224923 131.028193 C75.990275 128.059716 73.933449 125.171608 71.999884 122.792753 C67.210619 116.900547 61.976730 110.702129 54.699204 108.535848 C47.421679 106.369567 37.819855 110.519792 37.340409 118.097739 C34.611583 118.892184 34.296460 114.219593 35.562382 111.674977 C42.272727 98.186602 52.272796 82.637599 67.322596 83.322059 C72.318270 83.549260 77.008495 85.663780 81.556767 87.742625 C87.161866 90.304506 92.909451 92.965490 97.182574 97.406299 C101.455698 101.847108 103.972787 108.542103 101.792413 114.306332 C100.945294 116.545850 103.842426 118.725439 106.179207 118.203419 C108.515989 117.681399 110.134955 115.615316 111.552566 113.685697 C117.816872 105.158871 124.081179 96.632046 130.345485 88.105221 C133.071529 84.394595 135.509203 78.481760 131.706407 75.885842 C119.833475 67.780971 112.246518 53.733486 111.979278 39.360454 C111.712038 24.987422 118.771558 10.667613 130.334998 2.126986 C132.038200 0.869021 134.070711 -0.321395 136.149928 0.078894 C138.229145 0.479182 139.726793 3.354849 138.182082 4.803035 C127.265433 15.037535 132.636004 34.150665 143.425068 44.519577 C154.214131 54.888489 168.872086 60.362107 180.142741 70.205407 C194.771194 82.981262 202.552945 102.490626 203.431235 121.892758 C204.309526 141.294890 198.777813 160.578399 190.209912 178.008407 C188.779448 180.918454 190.769834 184.504035 193.493977 186.262909 C196.218120 188.021782 199.523904 188.576010 202.544152 189.756134 C216.004755 195.015685 221.285361 211.192421 222.905874 225.552944 C227.979825 270.516836 213.207962 316.454729 187.050285 353.377250 C178.922357 364.850119 166.191529 376.741848 152.727471 372.691034 C146.157171 370.714285 141.314537 365.314055 135.943298 361.044843 C127.387023 354.244076 117.070173 350.103474 106.888217 346.130057 C89.426230 339.315674 71.249071 332.613468 52.529255 333.575408 C33.809440 334.537347 14.290296 345.180138 8.767386 363.092544 C7.711818 366.516059 1.940827 365.627882 0.544049 362.328840 C-0.852730 359.029797 0.683907 355.268864 2.403571 352.126027 C16.933873 325.570640 47.109765 308.384343 77.362301 309.434233 C91.330469 309.918987 104.903426 313.942657 118.297401 317.935918 C125.473578 320.075413 132.649755 322.214908 139.825931 324.354403 C142.522110 312.259715 144.984959 298.673573 138.325998 288.223257 C135.679893 284.070560 131.585432 280.334538 131.451909 275.412248 C131.364471 272.188772 133.047394 269.223589 134.519945 266.354785 C141.511327 252.734275 144.710233 237.191592 143.665835 221.917203 C143.393582 217.935481 142.447442 213.375040 138.921780 211.504762 C137.061928 210.518155 134.850402 210.516267 132.747986 210.627116 C125.505123 211.008992 118.319283 212.455778 111.492973 214.906568 C108.817383 215.867160 107.235171 211.822073 107.614667 209.004716 C109.051957 198.334356 117.798713 189.050589 128.364620 186.980807 C133.588368 185.957515 138.993474 186.558476 144.285153 185.981588 C164.372412 183.791717 179.565440 163.670741 179.924379 143.467656 C180.283318 123.264571 168.187931 104.271751 151.909609 92.300546 C148.058537 89.468437 142.433261 90.312879 138.484099 93.006524 C134.534937 95.700168 131.880050 99.863861 129.335536 103.910717 C117.017496 123.501628 104.333405 144.186929 102.937233 167.286466 C101.057371 198.388607 99.177509 229.490748 97.297647 260.592890 C96.743994 269.753026 93.342350 281.755914 84.166570 281.615668 C76.004631 281.490918 72.209912 271.466004 71.406096 263.342784 C70.061469 249.754221 71.005287 235.942030 74.185858 222.662683 M156.117393 211.644236 C152.758266 213.536354 152.380329 218.137896 152.409649 221.993150 C152.468416 229.720264 152.527183 237.447378 152.585950 245.174492 C152.640429 252.337775 153.362089 260.757427 159.455400 264.524009 C165.035998 267.973658 165.808425 276.016331 163.729551 282.238985 C161.650676 288.461640 157.476614 293.783045 155.073311 299.887738 C151.870176 308.024089 151.988252 317.032934 152.151695 325.775563 C152.174210 326.979861 152.206824 328.228204 152.733817 329.311310 C153.370471 330.619799 154.629665 331.492956 155.835988 332.306746 C161.936650 336.422277 169.794222 340.651427 176.189044 337.009734 C178.814702 335.514487 180.607544 332.924847 182.213436 330.365364 C195.294143 309.517222 201.963771 284.706454 201.099572 260.109644 C200.516844 243.524059 195.248137 225.221624 180.805165 217.047167 C175.618095 214.111381 169.705769 212.770928 163.889930 211.466879 C161.299781 210.886107 158.430189 210.341491 156.117393 211.644236 z"/></svg>